# Blender 5.0.0
# www.blender.org
mtllib box_electric.mtl
o Cube
v -0.425000 -0.140000 0.425000
v -0.425000 0.140000 0.425000
v -0.425000 -0.140000 -0.425000
v -0.425000 0.140000 -0.425000
v 0.425000 -0.140000 0.425000
v 0.425000 0.140000 0.425000
v 0.425000 -0.140000 -0.425000
v 0.425000 0.140000 -0.425000
vn -1.0000 -0.0000 -0.0000
vn -0.0000 -0.0000 -1.0000
vn 1.0000 -0.0000 -0.0000
vn -0.0000 -0.0000 1.0000
vn -0.0000 -1.0000 -0.0000
vn -0.0000 1.0000 -0.0000
vt 0.375000 0.000000
vt 0.625000 0.000000
vt 0.000000 0.000000
vt 0.000000 1.000000
vt 0.625000 1.000000
vt 0.375000 1.000000
vt 0.000000 0.500000
vt 0.000000 0.750000
vt 1.000000 0.000000
vt 1.000000 1.000000
s 0
usemtl Material.001
f 1/1/1 2/2/1 4/2/1 3/1/1
f 3/1/2 4/2/2 8/3/2 7/3/2
f 7/3/3 8/3/3 6/4/3 5/4/3
f 5/4/4 6/4/4 2/5/4 1/6/4
f 3/7/5 7/3/5 5/4/5 1/8/5
f 8/3/6 4/9/6 2/10/6 6/4/6
