# Blender 5.0.0
# www.blender.org
mtllib cylinder_pill.mtl
o Cylinder
v 0.000000 -0.025019 -0.035052
v 0.000000 0.025019 -0.035052
v 0.017526 -0.025019 -0.030356
v 0.017526 0.025019 -0.030356
v 0.030356 -0.025019 -0.017526
v 0.030356 0.025019 -0.017526
v 0.035052 -0.025019 0.000000
v 0.035052 0.025019 0.000000
v 0.030356 -0.025019 0.017526
v 0.030356 0.025019 0.017526
v 0.017526 -0.025019 0.030356
v 0.017526 0.025019 0.030356
v 0.000000 -0.025019 0.035052
v 0.000000 0.025019 0.035052
v -0.017526 -0.025019 0.030356
v -0.017526 0.025019 0.030356
v -0.030356 -0.025019 0.017526
v -0.030356 0.025019 0.017526
v -0.035052 -0.025019 0.000000
v -0.035052 0.025019 0.000000
v -0.030356 -0.025019 -0.017526
v -0.030356 0.025019 -0.017526
v -0.017526 -0.025019 -0.030356
v -0.017526 0.025019 -0.030356
vn 0.2588 -0.0000 -0.9659
vn 0.7071 -0.0000 -0.7071
vn 0.9659 -0.0000 -0.2588
vn 0.9659 -0.0000 0.2588
vn 0.7071 -0.0000 0.7071
vn 0.2588 -0.0000 0.9659
vn -0.2588 -0.0000 0.9659
vn -0.7071 -0.0000 0.7071
vn -0.9659 -0.0000 0.2588
vn -0.9659 -0.0000 -0.2588
vn -0.0000 1.0000 -0.0000
vn -0.7071 -0.0000 -0.7071
vn -0.2588 -0.0000 -0.9659
vn -0.0000 -1.0000 -0.0000
vt 1.000000 1.000000
vt 0.916667 1.000000
vt 0.833333 1.000000
vt 0.750000 1.000000
vt 0.666667 1.000000
vt 0.583333 1.000000
vt 0.500000 1.000000
vt 0.416667 1.000000
vt 0.333333 1.000000
vt 0.250000 1.000000
vt 0.166667 1.000000
vt 0.241463 0.052200
vt 0.500000 -0.017075
vt 0.758537 0.052200
vt 0.947800 0.241463
vt 1.017075 0.500000
vt 0.947800 0.758537
vt 0.758537 0.947800
vt 0.500000 1.017075
vt 0.241463 0.947800
vt 0.052200 0.758537
vt -0.017075 0.500000
vt 0.052200 0.241463
vt 0.083333 1.000000
vt 0.000000 1.000000
vt 0.918661 0.143520
vt 0.949752 0.135189
vt 0.972512 0.112429
vt 0.980843 0.081339
vt 0.972512 0.050248
vt 0.949752 0.027488
vt 0.918661 0.019157
vt 0.887571 0.027488
vt 0.864811 0.050248
vt 0.856480 0.081339
vt 0.864811 0.112429
vt 0.887571 0.135189
s 0
usemtl Material.001
f 1/1/1 2/1/1 4/2/1 3/2/1
f 3/2/2 4/2/2 6/3/2 5/3/2
f 5/3/3 6/3/3 8/4/3 7/4/3
f 7/4/4 8/4/4 10/5/4 9/5/4
f 9/5/5 10/5/5 12/6/5 11/6/5
f 11/6/6 12/6/6 14/7/6 13/7/6
f 13/7/7 14/7/7 16/8/7 15/8/7
f 15/8/8 16/8/8 18/9/8 17/9/8
f 17/9/9 18/9/9 20/10/9 19/10/9
f 19/10/10 20/10/10 22/11/10 21/11/10
f 4/12/11 2/13/11 24/14/11 22/15/11 20/16/11 18/17/11 16/18/11 14/19/11 12/20/11 10/21/11 8/22/11 6/23/11
f 21/11/12 22/11/12 24/24/12 23/24/12
f 23/24/13 24/24/13 2/25/13 1/25/13
f 1/26/14 3/27/14 5/28/14 7/29/14 9/30/14 11/31/14 13/32/14 15/33/14 17/34/14 19/35/14 21/36/14 23/37/14
